<?xml version="1.0" encoding="utf-8"?>
<!-- Generator: Adobe Illustrator 25.0.0, SVG Export Plug-In . SVG Version: 6.00 Build 0)  -->
<svg version="1.1" id="Capa_1" xmlns="http://www.w3.org/2000/svg" xmlns:xlink="http://www.w3.org/1999/xlink" x="0px" y="0px"
	 viewBox="0 0 512 512" style="enable-background:new 0 0 512 512;" xml:space="preserve">
<style type="text/css">
	.st0{fill:#707070;}
</style>
<g>
	<g>
		<path class="st0" d="M251.7,250c0-10.2-5.3-19.6-15-26.5c-8.9-6.4-20.6-9.9-32.9-9.9c-12.3,0-24,3.5-32.9,9.9
			c-9.6,6.9-15,16.3-15,26.5c0,10.2,5.3,19.6,15,26.5c8.9,6.4,20.6,9.9,32.9,9.9s24-3.5,32.9-9.9C246.4,269.7,251.7,260.2,251.7,250
			L251.7,250z M203.9,271.5c-17.8,0-32.9-9.8-32.9-21.4s15.1-21.4,32.9-21.4c17.8,0,32.9,9.8,32.9,21.4
			C236.7,261.7,221.7,271.5,203.9,271.5z"/>
		<path class="st0" d="M219.5,240.9c-3.4-2.3-8.1-1.5-10.4,1.9c-1.2,1.8-3.6,2.9-5.8,2.7c-1.8-0.2-3.6-1.3-4.6-2.8
			c-2.4-3.4-7-4.3-10.4-1.9c-3.4,2.4-4.3,7-1.9,10.4c3.6,5.2,9.3,8.6,15.5,9.2c0.7,0.1,1.4,0.1,2,0.1c6.9,0,13.7-3.5,17.6-9.2
			C223.8,248,222.9,243.3,219.5,240.9L219.5,240.9z"/>
		<path class="st0" d="M356,250c0-10.2-5.3-19.6-15-26.5c-8.9-6.4-20.6-9.9-32.9-9.9s-24,3.5-32.9,9.9c-9.6,6.9-15,16.3-15,26.5
			c0,10.2,5.3,19.6,15,26.5c8.9,6.4,20.6,9.9,32.9,9.9c12.3,0,24-3.5,32.9-9.9C350.7,269.7,356,260.2,356,250L356,250z M308.1,271.5
			c-17.8,0-32.9-9.8-32.9-21.4s15.1-21.4,32.9-21.4S341,238.4,341,250C341,261.7,326,271.5,308.1,271.5z"/>
		<path class="st0" d="M323.8,240.8c-3.4-2.4-8.1-1.5-10.4,1.9c-1.1,1.5-2.9,2.6-4.6,2.8c-2.2,0.2-4.6-0.9-5.8-2.7
			c-2.3-3.4-7-4.3-10.4-1.9s-4.3,7-1.9,10.4c4,5.7,10.7,9.2,17.6,9.2c0.7,0,1.4,0,2-0.1c6.1-0.6,11.9-4.1,15.5-9.2
			C328.1,247.9,327.2,243.2,323.8,240.8L323.8,240.8z"/>
		<path class="st0" d="M288.9,317.1c-8.9-6.4-20.6-9.9-32.9-9.9s-24,3.5-32.9,9.9c-9.6,6.9-15,16.3-15,26.5c0,10.2,5.3,19.6,15,26.5
			c8.9,6.4,20.6,9.9,32.9,9.9s24-3.5,32.9-9.9c9.6-6.9,15-16.3,15-26.5C303.9,333.4,298.6,324,288.9,317.1z M256,365
			c-17.8,0-32.9-9.8-32.9-21.4s15.1-21.4,32.9-21.4s32.9,9.8,32.9,21.4S273.8,365,256,365z"/>
		<path class="st0" d="M267.3,335.3c-2.7,1.3-6,2.1-9.4,2.3c-4.6,0.3-9.6-0.6-13.2-2.3c-3.8-1.7-8.2-0.1-10,3.7s-0.1,8.2,3.7,10
			c5.2,2.4,11.6,3.7,17.8,3.7c0.9,0,1.7,0,2.6-0.1c5.3-0.3,10.4-1.6,14.9-3.7c3.7-1.8,5.4-6.2,3.6-10
			C275.5,335.2,271.1,333.6,267.3,335.3L267.3,335.3z"/>
		<path class="st0" d="M399.8,458.7l-79.4-22.3c-8.2-2.3-13.5-10.4-12.3-18.8c0-0.1,0-0.2,0-0.3l1.7-17.9c9-7.2,16.9-14.6,23.5-22.2
			c30.6-35.1,46.4-70.5,48.4-108.4c0.1-2.2,0.2-4.8,0.3-7.8l9.3-15.6c4-6.6,7.4-13.3,10.3-20c17-38.7,3.5-86.7-17.5-117.1
			c-3.1-4.5-6.4-8.8-9.9-12.8c-2.7-3.1-7.5-3.4-10.6-0.7s-3.4,7.5-0.7,10.6c3.1,3.6,6.1,7.4,8.9,11.4
			c25.8,37.4,26.7,78.5,16.1,102.6c-2.7,6.1-5.8,12.2-9.5,18.3l-0.5,0.8c-6.2-23.8-17.9-46.4-34.8-67.3
			c-18.9-23.3-44.6-44.3-74.3-60.9c-27.2-15.2-58.3-24-90-25.5c-2.1-0.1-4-0.2-5.9-0.2c9.5-6.5,18.8-12.5,29.2-16
			c22.8-7.7,48.3-9,72.1-6.4c24.4,2.6,45.9,9.9,63.8,21.6c3.5,2.3,8.1,1.3,10.4-2.2s1.3-8.1-2.2-10.4c-9.7-6.3-20.3-11.4-31.7-15.4
			c0.9-14.2-2.4-26-9.9-35.4C288.4,0.1,258.6,0,256,0c-2.6,0-32.4,0.1-48.6,20.5c-7.2,9-10.6,20.4-10,33.9
			c-3.7,1.2-7.2,2.7-10.6,4.4c-21.7,9.7-55.6,31.3-74.3,76.8c0,0,0,0.1-0.1,0.1c-5.3,13.7-8.7,29.5-9.6,44.4
			c-1,17.1,1.4,32.8,6.9,45.3c2.9,6.6,6.4,13.4,10.4,20l9.9,16.5c0.1,2.4,0.1,4.7,0.3,6.9c2,37.9,17.8,73.3,48.4,108.4
			c6.6,7.6,14.5,15.1,23.5,22.2l1.7,17.9c0,0.1,0,0.2,0,0.3c1.2,8.4-4.1,16.5-12.3,18.8l-20.1,5.6c-4,1.1-6.3,5.3-5.2,9.2
			c1.1,4,5.3,6.3,9.2,5.2l20.1-5.6c15.3-4.3,25.2-19.4,23.1-35.1l-0.5-5.2c11.8,6.5,24.8,9.7,37.7,9.7c13,0,26-3.2,37.7-9.7
			l-0.5,5.2c-2.1,15.8,7.8,30.8,23.1,35.1l79.4,22.3c11.5,3.2,20.2,12.5,22.9,23.8H93.4c2.7-11.3,11.3-20.6,22.9-23.8l26-7.3
			c4-1.1,6.3-5.3,5.2-9.2s-5.3-6.3-9.2-5.2l-26,7.3c-20.4,5.7-34.7,24.5-34.7,45.8c0,4.1,3.4,7.5,7.5,7.5h342c4.1,0,7.5-3.4,7.5-7.5
			C434.5,483.3,420.2,464.5,399.8,458.7L399.8,458.7z M219,29.9C230.7,15.2,254.3,15,255.8,15h0.1c0.1,0,0.2,0,0.2,0
			c0.2,0,24.9-0.2,36.9,14.9c4.5,5.6,6.7,12.8,6.7,21.6c-7.7-1.9-15.6-3.3-23.9-4.1c-10.4-1.1-20.6-1.5-30.4-1.2
			c-11.5,0.4-22.6,1.8-33.1,4.2C212.5,42.1,214.8,35.2,219,29.9L219,29.9z M133,237.7c-3.6-6.1-6.8-12.3-9.5-18.3
			c-10.1-23-5.8-55.8,2.9-78.2c6.4-15.5,15.2-29,26.3-40.5c2.5-0.7,9.1-1.7,25.5-0.9c20.9,1,41.6,5.5,60.8,13
			c-19.2,8.1-37.3,20-53.3,35.4c-25.7,24.9-43.9,56.3-52.3,90.1L133,237.7z M293.5,393c-22.4,16.4-52.5,16.4-75,0
			c-11.2-8.2-20.9-16.9-28.6-25.7c-28.3-32.4-42.9-64.9-44.7-99.3c-0.2-3.2-0.3-6.8-0.3-10.5c5.4-36.4,24-72.2,51.2-98.5
			c18.3-17.7,39.6-30.4,62.2-37.3c1.1,0.6,2.2,1.1,3.2,1.7c82,45.7,101.2,105.2,105.4,136.7c0,0.1,0.1,0.2,0.1,0.4
			c-0.1,2.9-0.1,5.4-0.2,7.5c-1.8,34.4-16.4,66.9-44.7,99.3C314.3,376.1,304.7,384.8,293.5,393z"/>
	</g>
</g>
</svg>
