<?xml version="1.0" encoding="utf-8"?>
<!-- Generator: Adobe Illustrator 25.0.0, SVG Export Plug-In . SVG Version: 6.00 Build 0)  -->
<svg version="1.1" id="Capa_1" xmlns="http://www.w3.org/2000/svg" xmlns:xlink="http://www.w3.org/1999/xlink" x="0px" y="0px"
	 viewBox="0 0 512 512" style="enable-background:new 0 0 512 512;" xml:space="preserve">
<style type="text/css">
	.st0{fill:#707070;}
</style>
<g>
	<g>
		<path class="st0" d="M206.9,260.4c-1.9-1.9-4.4-2.9-7.1-2.9c-2.6,0-5.2,1.1-7.1,2.9s-2.9,4.4-2.9,7.1s1.1,5.2,2.9,7.1
			c1.9,1.9,4.4,2.9,7.1,2.9c2.6,0,5.2-1.1,7.1-2.9c1.9-1.9,2.9-4.4,2.9-7.1S208.7,262.3,206.9,260.4z"/>
	</g>
</g>
<g>
	<g>
		<path class="st0" d="M484,188c-8.4-8.2-18.2-14.5-28.7-18.9c-6.9-41.9-26.4-79.9-56.5-110c-78.8-78.8-206.9-78.8-285.6,0
			c-24.9,24.9-42.8,55.8-52,89.6c-5.7-0.2-11.4,1.2-16.5,4.3c-9.1,5.5-14.6,15.1-14.6,25.7v78.9c-7.1,3.1-12,10.1-12,18.3V320
			c-10.1,1-18,9.5-18,19.9v142c0,16.5,13.5,30,30,30h92c16.5,0,30-13.5,30-30V375.2c22.8,13.7,47.8,22.7,74,26.6v50.1h-4.8
			c-27.6,0-50.1,22.5-50.1,50.1c0,5.5,4.5,10,10,10H331c5.5,0,10-4.5,10-10c0-27.6-22.5-50.1-50.1-50.1H286v-50.1
			c27.9-4.1,54.5-14,78.3-29.2v99.9c0,21.8,17.7,39.5,39.5,39.5h29.5c21.8,0,39.5-17.7,39.5-39.5V354.7l29.7-60.3
			C520.2,258.5,512.7,215.8,484,188z M50,178.7c0-5.1,3.4-7.7,4.9-8.6c1.5-0.9,5.3-2.7,9.9-0.2l32,17.1c3.3,1.7,5.3,5.1,5.3,8.8V256
			H50V178.7z M38,276h76v44H38V276z M132,481.9c0,5.5-4.5,10-10,10H30c-5.5,0-10-4.5-10-10v-142h112V481.9L132,481.9z M290.8,471.9
			c13.1,0,24.2,8.4,28.3,20.1H192.8c4.1-11.7,15.3-20.1,28.4-20.1H236h40H290.8z M246,451.9v-48.2c3.3,0.2,6.6,0.2,9.9,0.2
			c0.9,0,1.8,0,2.7,0c2.5,0,4.9-0.1,7.3-0.2v48.2H246L246,451.9z M152,351.3v-11.4c0-10.4-7.9-18.9-18-19.9v-44.1
			c0-8.2-4.9-15.2-12-18.3v-61.8c0-11.1-6.1-21.2-15.8-26.4l-26.1-14c8.2-31,24.4-59.3,47.3-82.1c71-71,186.4-71,257.4,0
			c24.9,24.9,41.8,55.8,49.2,89.9c-4.4-0.7-8.9-1-13.5-1c-5.2,0-10.2,0.5-15.2,1.3c-8.1-31.3-26-59.6-51.2-80.4
			C326.4,60.5,291.7,48,256,48c-27.1,0-53.7,7.1-77,20.6c-22.6,13.1-41.7,31.8-55.1,54.2c-2.8,4.7-1.3,10.9,3.4,13.7
			c4.7,2.8,10.9,1.3,13.7-3.4C165.5,92.3,208.5,68,256,68c12.8,0,25.3,1.8,37.2,5.3l-73.8,73.8c-3.9,3.9-3.9,10.2,0,14.1
			c2,2,4.5,2.9,7.1,2.9s5.1-1,7.1-2.9l80.1-80.1c12.7,6.1,24.4,14.2,34.6,23.8L219.8,233.4c-3.9,3.9-3.9,10.2,0,14.1
			c2,2,4.5,2.9,7.1,2.9s5.1-1,7.1-2.9l127.8-127.8c11.2,14.3,19.5,30.9,24.1,49.2c-10.7,4.4-20.7,10.8-29.2,19.1l-1.1,1.1
			c-28,27-35.8,68.9-19.5,104.2l5.4,11.8c-24,19.9-54.1,30.8-85.5,30.8c-25.9,0-51-7.4-72.6-21.4c-4.6-3-10.8-1.7-13.8,3
			c-3,4.6-1.7,10.8,3,13.8c24.9,16.1,53.7,24.6,83.4,24.6c34.3,0,67.2-11.3,94.1-32.1l12,26C300.2,394.3,214.7,395,152,351.3z
			 M452.8,472.4c0,10.8-8.8,19.5-19.5,19.5h-29.5c-10.8,0-19.5-8.8-19.5-19.5v-62.6h68.5V472.4L452.8,472.4z M452.8,389.8h-68.5
			v-27.7h68.5V389.8z M484.6,285.5l-27.9,56.7h-5.1v-41.1c0-5.5-4.5-10-10-10s-10,4.5-10,10v41.1h-50.9L354.3,285
			c-12.7-27.6-6.6-60.4,15.2-81.5l1.1-1.1c27.9-27,71.6-27,99.6,0C492.6,224.1,498.4,257.5,484.6,285.5z"/>
	</g>
</g>
<g>
	<g>
		<path class="st0" d="M448.6,260.4c-1.9-1.9-4.4-2.9-7.1-2.9c-2.6,0-5.2,1.1-7.1,2.9s-2.9,4.4-2.9,7.1s1.1,5.2,2.9,7.1
			s4.4,2.9,7.1,2.9c2.6,0,5.2-1.1,7.1-2.9s2.9-4.4,2.9-7.1S450.5,262.3,448.6,260.4z"/>
	</g>
</g>
</svg>
