<?xml version="1.0" encoding="utf-8"?>
<!-- Generator: Adobe Illustrator 25.0.0, SVG Export Plug-In . SVG Version: 6.00 Build 0)  -->
<svg version="1.1" id="Capa_1" xmlns="http://www.w3.org/2000/svg" xmlns:xlink="http://www.w3.org/1999/xlink" x="0px" y="0px"
	 viewBox="0 0 512 512" style="enable-background:new 0 0 512 512;" xml:space="preserve">
<style type="text/css">
	.st0{fill:#707070;}
</style>
<g id="Page-1">
	<g id="_x30_22---Perfume">
		<path id="Shape" class="st0" d="M108.6,204.9C62,234.6,33.9,286.1,34.1,341.3c0,4.7,3.8,8.5,8.5,8.5s8.5-3.8,8.5-8.5
			c-0.2-49.4,24.9-95.5,66.6-122.1c4-2.5,5.1-7.8,2.6-11.8S112.5,202.3,108.6,204.9L108.6,204.9z"/>
		<path id="Shape_1_" class="st0" d="M196.3,34.1c-14.1,0-25.6,11.5-25.6,25.6s11.5,25.6,25.6,25.6s25.6-11.5,25.6-25.6
			S210.4,34.1,196.3,34.1z M196.3,68.3c-4.7,0-8.5-3.8-8.5-8.5s3.8-8.5,8.5-8.5s8.5,3.8,8.5,8.5S201,68.3,196.3,68.3z"/>
		<path id="Shape_2_" class="st0" d="M132.3,366.9c-16.5,0-29.9,13.4-29.9,29.9c0,16.5,13.4,29.9,29.9,29.9s29.9-13.4,29.9-29.9
			C162.1,380.3,148.8,366.9,132.3,366.9z M132.3,409.6c-7.1,0-12.8-5.7-12.8-12.8s5.7-12.8,12.8-12.8c7.1,0,12.8,5.7,12.8,12.8
			S139.3,409.6,132.3,409.6z"/>
		<circle id="Oval" class="st0" cx="76.8" cy="426.7" r="8.5"/>
		<circle id="Oval_1_" class="st0" cx="110.9" cy="452.3" r="8.5"/>
		<path id="Shape_3_" class="st0" d="M422.4,68.3c-36.2,0-67.5,17.5-81.6,42.7h-65.3c-5.6-4.5-12.4-7.3-19.6-8.1V34.1
			C256,15.3,240.7,0,221.9,0h-51.2c-18.9,0-34.1,15.3-34.1,34.1v68.7c-13.9,1.4-25.9,10.4-31.2,23.3c-5.3,12.9-3.2,27.7,5.6,38.5
			C47.5,195.2,5.4,257.4,0.5,327.7s28.2,137.7,86.7,176.8c7.2,4.8,15.6,7.4,24.2,7.5h169.9c8,0.1,15.9-2.2,22.7-6.5
			c55.1-36.3,88.3-97.7,88.5-163.7c0-0.2,0.1-0.3,0.1-0.5c0-0.2-0.1-0.3-0.1-0.4c0-5.6-0.2-11.2-0.6-16.8
			c-5.9-64.2-42.8-121.5-98.7-153.5h47.7c14.1,25.1,45.3,42.7,81.6,42.7c49.4,0,89.6-32.5,89.6-72.5S471.8,68.3,422.4,68.3z
			 M153.6,34.1c0-9.4,7.6-17.1,17.1-17.1h51.2c9.4,0,17.1,7.6,17.1,17.1v68.3h-85.3V34.1z M140.8,119.5h110.9c5.5,0,10.8,2.1,14.8,6
			l0.1,0.1c4.1,4,6.4,9.5,6.4,15.2s-2.3,11.2-6.4,15.2l-0.1,0.1c-4,3.8-9.3,6-14.8,6H140.8c-11.8,0-21.3-9.6-21.3-21.3
			C119.5,129,129,119.4,140.8,119.5L140.8,119.5z M294.6,491.2c-4,2.5-8.6,3.8-13.3,3.7H111.4c-5.2-0.1-10.4-1.7-14.7-4.6
			c-35-23.4-60.6-58.4-72.3-98.7c18.8-2.7,36.6-10.2,51.6-21.9c16.3-13.2,36.8-20.2,57.8-19.9c21-0.3,41.4,6.7,57.7,19.8
			c19.2,15.1,43,23.2,67.4,22.8c24.4,0.3,48.2-7.7,67.4-22.8c14-11.2,31.1-18,49-19.5C372.3,407.4,342.4,459.8,294.6,491.2
			L294.6,491.2z M374.8,325.6c0.2,2.6,0.3,5.1,0.4,7.6c-21.3,1.5-41.7,9.3-58.6,22.4c-16.3,13.2-36.8,20.2-57.7,19.8
			c-21,0.4-41.5-6.7-57.8-19.9c-19.2-15.1-43-23.1-67.4-22.8c-24.4-0.3-48.2,7.7-67.4,22.8c-13.3,10.5-29.2,17.2-46.1,19.2
			C4.4,291.9,48.7,209.2,126.5,176.4c4.5,1.9,9.4,2.8,14.3,2.8h110.9c4.9,0,9.8-1,14.4-2.9C327,202.4,368.7,259.7,374.8,325.6
			L374.8,325.6z M287.8,153.6c3.1-8.2,3.1-17.4,0-25.6h46.5c-2,8.4-2,17.2,0,25.6H287.8z M422.4,196.3c-31.7,0-58.7-15.7-68.5-37.4
			l-0.1-0.2c-5.3-11.4-5.3-24.5,0-35.8l0.1-0.2c9.8-21.7,36.8-37.4,68.5-37.4c40,0,72.5,24.9,72.5,55.5S462.4,196.3,422.4,196.3z"/>
		<path id="Shape_4_" class="st0" d="M422.4,102.4c-33.2,0-55.5,19.9-55.5,38.4c0,4.7,3.8,8.5,8.5,8.5c4.7,0,8.5-3.8,8.5-8.5
			c0-8.7,15-21.3,38.4-21.3c4.7,0,8.5-3.8,8.5-8.5C430.9,106.2,427.1,102.4,422.4,102.4z"/>
		<path id="Shape_5_" class="st0" d="M60.6,4.7c-1,2-1.2,4.4-0.5,6.5s2.3,3.9,4.3,5l34.1,17.1c4.2,2.1,9.3,0.4,11.5-3.8
			c2.1-4.2,0.4-9.3-3.8-11.5L72.1,0.9C67.9-1.2,62.8,0.5,60.6,4.7z"/>
		<path id="Shape_6_" class="st0" d="M98.6,86.2l-34.1,17.1c-2.7,1.4-4.5,4.1-4.7,7.1c-0.2,3,1.3,6,3.8,7.6c2.5,1.7,5.8,1.9,8.5,0.5
			l34.1-17.1c2.7-1.4,4.5-4.1,4.7-7.1c0.2-3-1.3-6-3.8-7.6C104.6,85.1,101.3,84.9,98.6,86.2z"/>
		<path id="Shape_7_" class="st0" d="M51.2,59.7c0,4.7,3.8,8.5,8.5,8.5h34.1c4.7,0,8.5-3.8,8.5-8.5s-3.8-8.5-8.5-8.5H59.7
			C55,51.2,51.2,55,51.2,59.7z"/>
		<path id="Shape_8_" class="st0" d="M324.3,426.7c-3.8-2.8-9.1-2.1-11.9,1.7c-9.4,12.6-20.8,23.5-33.7,32.4l-31.2-0.1
			c-4.7,0-8.5,3.8-8.5,8.5c0,4.7,3.8,8.5,8.5,8.5l33.8,0.1c1.7,0,3.3-0.5,4.7-1.4c15.4-10.2,28.9-23,40-37.8
			C328.8,434.8,328,429.5,324.3,426.7z"/>
	</g>
</g>
</svg>
