<?xml version="1.0" encoding="utf-8"?>
<!-- Generator: Adobe Illustrator 25.0.0, SVG Export Plug-In . SVG Version: 6.00 Build 0)  -->
<svg version="1.1" id="Capa_1" xmlns="http://www.w3.org/2000/svg" xmlns:xlink="http://www.w3.org/1999/xlink" x="0px" y="0px"
	 viewBox="0 0 377 377" style="enable-background:new 0 0 377 377;" xml:space="preserve">
<style type="text/css">
	.st0{fill:#707070;}
</style>
<path id="XMLID_1391_" class="st0" d="M194.2,87.5c15.2,0,30.5-11.7,30.5-34.2c0-16.1-10.9-37.7-24.7-49.2c-3.3-2.8-8.2-2.8-11.5,0
	c-13.9,11.5-24.7,33.1-24.7,49.2C163.7,75.8,179.1,87.5,194.2,87.5z M194.2,23.8c7.1,8.7,12.5,20.9,12.5,29.5
	c0,11.9-6.7,16.2-12.5,16.2c-5.8,0-12.5-4.2-12.5-16.2C181.7,44.7,187.1,32.5,194.2,23.8z M300.5,289.5c0-16.2-13.2-29.3-29.3-29.3
	c-16.2,0-29.3,13.2-29.3,29.3s13.2,29.3,29.3,29.3C287.4,318.8,300.5,305.7,300.5,289.5z M259.9,289.5c0-6.2,5.1-11.3,11.3-11.3
	c6.2,0,11.3,5.1,11.3,11.3c0,6.2-5.1,11.3-11.3,11.3C265,300.8,259.9,295.8,259.9,289.5z M134.8,279.4c0.3,5-3.5,9.2-8.5,9.5
	c-8.6,0.5-17.5,0.7-26.5,0.7s-17.9-0.2-26.5-0.7c-5-0.3-8.8-4.5-8.5-9.5c0.3-5,4.5-8.8,9.5-8.5c16.5,0.9,34.5,0.9,50.9,0
	C130.2,270.7,134.5,274.5,134.8,279.4z M377,216.9v105.8c0,0.1,0,0.2,0,0.3c0,11.2-12.3,18.5-39.9,23.8c-21.6,4.1-50.1,6.3-80.4,6.3
	c-11.3,0-22.5-0.3-33.3-0.9c-5-0.3-8.8-4.5-8.5-9.5c0.3-5,4.5-8.8,9.5-8.5c10.4,0.6,21.3,0.9,32.3,0.9c60.4,0,95.7-8.8,102.4-13.9
	v-86.6c-5.8,2.2-13.1,4.1-21.9,5.7c-21.6,4.1-50.1,6.3-80.4,6.3c-11.3,0-22.5-0.3-33.3-0.9c-5-0.3-8.8-4.5-8.5-9.5
	c0.3-5,4.5-8.7,9.5-8.5c10.4,0.6,21.3,0.9,32.3,0.9c60.4,0,95.7-8.8,102.4-13.9v-14.9c-5.8,2.2-13.1,4.1-21.9,5.7
	c-21.6,4.1-50.1,6.3-80.4,6.3c-11.3,0-22.5-0.3-33.3-0.9c-5-0.3-8.8-4.5-8.5-9.5c0.3-5,4.5-8.8,9.5-8.5c10.4,0.6,21.3,0.9,32.3,0.9
	c53.8,0,87.6-7,99.1-12.1c-11.5-5.1-45.4-12.1-99.1-12.1c-11,0-21.8,0.3-32.3,0.9c-5,0.3-9.2-3.5-9.5-8.5s3.5-9.2,8.5-9.5
	c10.8-0.6,22-0.9,33.3-0.9c30.3,0,58.9,2.3,80.4,6.3c27.6,5.2,39.9,12.6,39.9,23.8c0,0.3,0,0.6,0,0.9c0,0.2,0,0.4,0,0.6v33
	c0,0.1,0,0.2,0,0.3C377,216.6,377,216.8,377,216.9z M99.8,256.6c16.2,0,29.3-13.2,29.3-29.3S116,198,99.8,198
	c-16.2,0-29.3,13.2-29.3,29.3S83.6,256.6,99.8,256.6z M99.8,216c6.2,0,11.3,5.1,11.3,11.3c0,6.2-5.1,11.3-11.3,11.3
	c-6.2,0-11.3-5.1-11.3-11.3C88.5,221,93.6,216,99.8,216z M164.7,98.2h-25.6V72.6c0-18.6-12.9-34.2-30.3-38.2V20h41.6c5,0,9-4,9-9
	s-4-9-9-9h-50.2c-0.3,0-0.6,0-0.9,0H75.9c-5,0-9,4-9,9s4,9,9,9h14.9v14.4C73.5,38.4,60.5,54,60.5,72.6v25.6H34.9
	C15.7,98.2,0,113.9,0,133.1v215.6c0,12.9,18.1,18,33.9,21c17.7,3.4,41.1,5.2,65.9,5.2c24.8,0,48.2-1.8,65.9-5.2
	c15.8-3,33.9-8.1,33.9-21V133.1C199.6,113.9,184,98.2,164.7,98.2z M78.5,72.6c0-11.7,9.5-21.3,21.3-21.3s21.3,9.5,21.3,21.3v25.6
	H78.5V72.6z M181.6,346.4C175,350.5,147,357,99.8,357s-75.2-6.5-81.8-10.6V317c5.1,1.7,10.6,2.9,15.9,3.9
	c17.7,3.4,41.1,5.2,65.9,5.2c24.8,0,48.2-1.8,65.9-5.2c5.3-1,10.9-2.2,15.9-3.9L181.6,346.4L181.6,346.4z M181.6,297.6
	c-6.6,4.1-34.6,10.6-81.8,10.6s-75.2-6.5-81.8-10.6V172.9c5.1,1.7,10.6,2.9,15.9,3.9c17.7,3.4,41.1,5.2,65.9,5.2
	c24.8,0,48.2-1.8,65.9-5.2c5.3-1,10.9-2.2,15.9-3.9L181.6,297.6L181.6,297.6z M181.6,153.5c-6.6,4.1-34.6,10.6-81.8,10.6
	c-47.2,0-75.2-6.5-81.8-10.6v-20.3c0-9.3,7.6-16.9,16.9-16.9h129.7c9.3,0,16.9,7.6,16.9,16.9L181.6,153.5L181.6,153.5z"/>
</svg>
