<?xml version="1.0" encoding="utf-8"?>
<!-- Generator: Adobe Illustrator 25.0.0, SVG Export Plug-In . SVG Version: 6.00 Build 0)  -->
<svg version="1.1" id="Capa_1" xmlns="http://www.w3.org/2000/svg" xmlns:xlink="http://www.w3.org/1999/xlink" x="0px" y="0px"
	 viewBox="0 0 477.3 477.3" style="enable-background:new 0 0 477.3 477.3;" xml:space="preserve">
<style type="text/css">
	.st0{fill:#707070;}
</style>
<g>
	<g>
		<g>
			<path class="st0" d="M463.9,218.4l-8.7-17.5c-2.4-4-7.5-5.2-11.4-2.9c-1.2,0.7-2.2,1.7-2.9,2.9l-4.1,8.2
				c-6.3,12.6-17.1,22.4-30.2,27.4H274c-30.7-0.3-56.3,23.6-58,54.3c-0.8,25.4,15.6,48.1,40,55.3v34.5h-29.8l-38.1-22.9
				c-0.6-0.4-1.3-0.7-2-0.8c-0.2,0-0.3,0-0.5-0.1c-0.5-0.1-1.1-0.2-1.6-0.2H8c-4.4,0-8,3.6-8,8v48c0,4.4,3.6,8,8,8h174.5l38.6,15.4
				c0.9,0.4,2,0.6,3,0.6h208c13.3,0,24-10.7,24-24v-8c0-13.3-10.7-24-24-24v-38.1c16.3-7.8,29.7-20.7,38.1-36.8
				c0.4-0.7,0.7-1.5,0.9-2.3c0.1-0.3,0.2-0.6,0.4-0.9C480.1,286.3,480.4,251.4,463.9,218.4z M176,404.5H16v-32h160V404.5z
				 M216,416.6l-24-9.6v-28.4l24,14.4V416.6z M440,404.5v8c0,4.4-3.6,8-8,8H232v-24h200C436.4,396.5,440,400,440,404.5z M272,380.5
				v-56c0-4.4,3.6-8,8-8s8,3.6,8,8v56H272z M304,380.5v-56c0-4.4,3.6-8,8-8s8,3.6,8,8v56H304z M336,380.5v-56c0-4.4,3.6-8,8-8
				s8,3.6,8,8v56H336z M368,380.5v-56c0-4.4,3.6-8,8-8s8,3.6,8,8v56H368z M400,380.5v-56c0-4.4,3.6-8,8-8s8,3.6,8,8v56H400z
				 M457.3,294.9c-0.5,0.9-0.9,1.9-1.3,2.9c-0.1,0.3-0.2,0.6-0.4,0.9c-5.5,10.4-13.7,19.2-23.8,25.4c-0.2-13.2-11-23.7-24.1-23.6
				c-5.9,0.1-11.5,2.3-15.8,6.2c-9-8.3-23-8.3-32,0c-9-8.3-23-8.3-32,0c-9-8.3-23-8.3-32,0c-9.8-8.9-24.9-8.2-33.8,1.5
				c-4,4.4-6.3,10.2-6.2,16.2v4.6c-15-6.5-24.6-21.5-24-37.9c1.4-22.1,19.9-39.2,42-38.8h134c0.9,0,1.8-0.2,2.7-0.5
				c15.4-5.5,28.5-16,37.1-30l1.8,3.5C464.4,255.1,463,284.4,457.3,294.9z"/>
			<path class="st0" d="M296,268.5L296,268.5l-16,0c-25.3,0-32,15.7-32,24c0,4.3,3.5,7.8,7.7,7.8h0.3c4.2-0.1,7.7-3.4,8-7.6
				c0.1-1.4,1.3-8.2,16-8.2h16c4.4,0,8-3.6,8-8S300.4,268.5,296,268.5z"/>
			<path class="st0" d="M440.3,252.6c-4.3,0.1-7.8,3.4-8.3,7.6c-0.1,1.4-1.3,8.2-16,8.2h-16c-4.4,0-8,3.6-8,8s3.6,8,8,8h16
				c25.3,0,32-15.7,32-24C448,256.2,444.5,252.7,440.3,252.6z"/>
			<path class="st0" d="M168.8,180.1c0.8,1.6,2,2.8,3.6,3.6l29.6,14.8l14.8,29.6c2,4,6.8,5.6,10.7,3.6c1.6-0.8,2.8-2,3.6-3.6
				l14.8-29.6l29.6-14.8c4-2,5.6-6.8,3.6-10.7c-0.8-1.6-2-2.8-3.6-3.6l-29.6-14.8l-14.8-29.6c-2.4-4-7.5-5.2-11.4-2.9
				c-1.2,0.7-2.2,1.7-2.9,2.9L202,154.5l-29.6,14.8C168.5,171.3,166.9,176.1,168.8,180.1z M211.6,167.7c1.6-0.8,2.8-2,3.6-3.6
				l8.8-17.7l8.8,17.7c0.8,1.6,2,2.8,3.6,3.6l17.7,8.8l-17.7,8.8c-1.6,0.8-2.8,2-3.6,3.6l-8.8,17.7l-8.8-17.7
				c-0.8-1.6-2-2.8-3.6-3.6l-17.7-8.8L211.6,167.7z"/>
			<path class="st0" d="M84.5,103.6l29.6,14.8l14.8,29.6c2,4,6.8,5.6,10.7,3.6c1.6-0.8,2.8-2,3.6-3.6l14.8-29.6l29.6-14.8
				c2.7-1.4,4.4-4.1,4.4-7.2c0-3-1.7-5.8-4.4-7.2L158,74.5l-14.8-29.6c-2.4-4-7.5-5.2-11.4-2.9c-1.2,0.7-2.2,1.7-2.9,2.9l-14.8,29.6
				L84.5,89.3c-4,2-5.6,6.8-3.6,10.7C81.6,101.6,82.9,102.8,84.5,103.6z M123.6,87.7c1.6-0.8,2.8-2,3.6-3.6l8.8-17.7l8.8,17.7
				c0.8,1.6,2,2.8,3.6,3.6l17.7,8.8l-17.7,8.8c-1.6,0.8-2.8,2-3.6,3.6l-8.8,17.7l-8.8-17.7c-0.8-1.6-2-2.8-3.6-3.6l-17.7-8.8
				L123.6,87.7z"/>
		</g>
	</g>
</g>
</svg>
